<svg xmlns="http://www.w3.org/2000/svg" width="784" height="217" viewBox="234 789 784 217" role="img" aria-labelledby="title desc">
<title id="title">MBANI Systems — wordmark — monochrome black</title>
<desc id="desc">Vector reconstruction from the original metallic full-lockup master. Lettering is outlined; no fonts or embedded bitmap images. Metallic surface uses sampled gradient approximations.</desc>
<rect x="234" y="789" width="784" height="217" fill="#ffffff"/>
<g id="icon"></g>
<g id="name">
<path d="M0 0 C16 0 16 0 19.406 2.691 C20.505 4.521 20.505 4.521 21.5 6.562 C22.356 8.03 23.217 9.495 24.082 10.957 C24.535 11.761 24.989 12.565 25.456 13.393 C28.094 17.846 31.127 22.027 34.121 26.244 C35.875 28.721 37.606 31.214 39.336 33.707 C39.656 34.168 39.656 34.168 41.276 36.502 C43.918 40.33 46.493 44.199 49.059 48.078 C51.635 51.967 54.25 55.83 56.875 59.688 C57.352 60.396 57.83 61.105 58.322 61.836 C58.77 62.492 59.218 63.148 59.68 63.824 C60.079 64.413 60.479 65.002 60.89 65.608 C62 67 62 67 64 68 C64.427 67.354 64.853 66.708 65.293 66.043 C71.204 57.134 77.243 48.314 83.29 39.497 C84.965 37.051 86.636 34.602 88.305 32.152 C93.733 24.189 99.196 16.252 104.75 8.375 C105.264 7.646 105.778 6.917 106.307 6.166 C109.872 1.128 109.872 1.128 111 0 C115.29 0 119.58 0 124 0 C124 33.33 124 66.66 124 101 C118.39 101 112.78 101 107 101 C106.67 74.6 106.34 48.2 106 21 C102.37 26.28 98.74 31.56 95 37 C93.185 39.64 91.37 42.28 89.5 45 C88.987 45.746 88.475 46.492 87.947 47.261 C85.754 50.452 83.558 53.64 81.355 56.824 C80.466 58.112 79.577 59.4 78.688 60.688 C78.247 61.323 77.807 61.959 77.354 62.613 C74.608 66.596 71.935 70.619 69.301 74.676 C68.67 75.641 68.04 76.606 67.39 77.601 C66.145 79.51 64.909 81.425 63.682 83.346 C63.117 84.212 62.551 85.077 61.969 85.969 C61.468 86.747 60.967 87.525 60.451 88.326 C59.972 88.879 59.493 89.431 59 90 C58.01 90 57.02 90 56 90 C54.549 88.326 54.549 88.326 53.031 85.969 C52.466 85.104 51.901 84.239 51.319 83.348 C50.719 82.408 50.118 81.468 49.5 80.5 C48.547 79.039 47.594 77.578 46.64 76.118 C45.683 74.653 44.729 73.185 43.776 71.718 C41.445 68.15 39.05 64.63 36.625 61.125 C36.2 60.509 35.775 59.892 35.337 59.258 C32.559 55.236 29.766 51.226 26.973 47.215 C26.62 46.708 26.267 46.201 25.903 45.679 C24.156 43.17 22.408 40.661 20.657 38.155 C20.011 37.228 19.365 36.302 18.699 35.348 C18.13 34.533 17.561 33.718 16.975 32.879 C14.277 28.946 11.646 24.968 9 21 C8.67 47.4 8.34 73.8 8 101 C5.36 101 2.72 101 0 101 C0 67.67 0 34.34 0 0 Z " transform="translate(258,813)" fill="#000000"/>
<path d="M0 0 C9.488 -0.062 18.975 -0.124 28.75 -0.188 C30.235 -0.201 30.235 -0.201 37.753 -0.27 C40.143 -0.279 42.532 -0.287 44.922 -0.293 C45.223 -0.297 45.223 -0.297 46.75 -0.317 C58.911 -0.467 70.509 0.695 80 9 C84.619 14.196 85.379 19.602 85.27 26.34 C84.72 31.763 82.989 36.159 78.953 39.895 C77.015 41.362 75.066 42.721 73 44 C73.808 44.375 74.616 44.75 75.449 45.137 C83.995 49.191 90.963 53.571 94.691 62.691 C97.158 70.402 96.276 77.655 93 85 C90.933 87.976 88.601 90.486 86 93 C85.278 93.743 84.556 94.485 83.812 95.25 C73.955 101.384 63.928 101.555 52.734 101.391 C51.376 101.385 50.019 101.381 48.661 101.378 C43.69 101.358 38.72 101.302 33.75 101.25 C28.181 101.209 28.181 101.209 0 101 C0 67.67 0 34.34 0 0 Z M17 7 C17 18.55 17 30.1 17 42 C22.409 42.092 27.814 42.172 33.223 42.22 C35.06 42.24 36.897 42.267 38.734 42.302 C41.385 42.351 44.036 42.373 46.688 42.391 C47.499 42.411 48.311 42.432 49.147 42.453 C54.858 42.455 59.257 41.267 64 38 C67.852 33.952 68.3 29.936 68.5 24.438 C68.323 18.931 67.788 15.998 64 12 C55.664 5.015 43.12 6.761 32.875 6.875 C30.256 6.896 30.256 6.896 17 7 Z M17 49 C16.829 53.158 16.669 57.317 16.518 61.476 C16.465 62.884 16.41 64.291 16.352 65.699 C15.961 75.219 16.107 84.512 17 94 C22.371 94.05 27.742 94.086 33.113 94.11 C34.937 94.12 36.76 94.133 38.583 94.151 C64.263 94.39 64.263 94.39 71 89 C75.975 83.967 78.284 79.337 78.312 72.125 C78.214 67.08 77.717 63.273 75 59 C74.66 58.456 74.319 57.912 73.969 57.352 C70.336 52.32 65.76 50.968 59.948 49.472 C55.874 48.82 51.881 48.877 47.762 48.902 C46.881 48.904 46 48.905 45.093 48.907 C42.291 48.912 39.489 48.925 36.688 48.938 C34.783 48.943 32.879 48.947 30.975 48.951 C26.316 48.962 21.658 48.979 17 49 Z " transform="translate(463,813)" fill="#000000"/>
<path d="M0 0 C2.332 0.228 2.332 0.228 5 1 C6.479 2.876 6.479 2.876 7.691 5.355 C8.154 6.276 8.617 7.196 9.094 8.144 C9.579 9.149 10.063 10.153 10.562 11.188 C11.356 12.779 12.156 14.367 12.956 15.954 C13.504 17.043 14.05 18.133 14.594 19.223 C17.161 24.368 19.905 29.406 22.688 34.438 C28.088 44.263 33.349 54.16 38.595 64.069 C43.852 73.995 49.167 83.885 54.598 93.717 C54.825 94.129 54.825 94.129 55.973 96.215 C56.367 96.928 56.762 97.64 57.168 98.375 C58 100 58 100 58 101 C51.73 101 45.46 101 39 101 C38.178 99.416 37.355 97.831 36.508 96.199 C27.143 78.165 17.711 60.169 8.125 42.25 C7.8 41.642 7.475 41.033 7.14 40.406 C3.836 34.226 0.525 28.058 -3 22 C-10.13 34.933 -17.107 47.94 -24 61 C-29.305 71.048 -34.627 81.085 -40.062 91.062 C-40.557 91.972 -41.051 92.881 -41.561 93.818 C-42.006 94.632 -42.451 95.446 -42.91 96.285 C-43.293 96.985 -43.676 97.685 -44.071 98.406 C-45 100 -45 100 -46 101 C-47.352 101.071 -48.708 101.084 -50.062 101.062 C-50.796 101.053 -51.529 101.044 -52.285 101.035 C-52.568 101.029 -52.568 101.029 -54 101 C-52.704 97.642 -51.266 94.445 -49.602 91.254 C-49.128 90.346 -48.655 89.438 -48.168 88.502 C-47.659 87.532 -47.15 86.562 -46.625 85.562 C-46.093 84.545 -45.56 83.527 -45.012 82.479 C-40.932 74.698 -36.738 66.982 -32.507 59.282 C-28.873 52.65 -25.353 45.965 -21.875 39.25 C-14.977 25.949 -7.881 12.75 0 0 Z " transform="translate(676,813)" fill="#000000"/>
<path d="M0 0 C5.011 0.052 7.354 1.118 11.031 4.5 C12.656 6.188 14.233 7.884 15.797 9.625 C16.6 10.475 17.406 11.323 18.215 12.168 C21.772 15.935 25.209 19.797 28.594 23.719 C32.369 28.068 36.44 32.091 40.547 36.125 C45.387 40.879 50.049 45.686 54.475 50.83 C56.564 53.215 58.775 55.413 61.047 57.625 C64.669 61.187 68.102 64.855 71.379 68.738 C72.761 70.301 74.173 71.773 75.651 73.243 C76.442 74.029 77.232 74.815 78.047 75.625 C78.057 74.7 78.067 73.775 78.078 72.822 C78.176 64.125 78.278 55.428 78.386 46.732 C78.441 42.26 78.495 37.788 78.544 33.317 C78.592 29.005 78.644 24.693 78.7 20.381 C78.72 18.733 78.739 17.084 78.756 15.435 C78.78 13.134 78.81 10.833 78.842 8.531 C78.847 7.843 78.853 7.155 78.859 6.446 C78.933 1.739 78.933 1.739 80.047 0.625 C82.357 0.625 84.667 0.625 87.047 0.625 C87.047 33.955 87.047 67.285 87.047 101.625 C79.047 101.625 79.047 101.625 76.892 100.287 C76.353 99.664 75.813 99.04 75.258 98.398 C74.945 98.051 74.945 98.051 73.365 96.291 C72.724 95.535 72.083 94.779 71.422 94 C70.027 92.434 68.63 90.87 67.23 89.309 C66.882 88.915 66.882 88.915 65.121 86.921 C62.035 83.504 58.772 80.283 55.484 77.062 C51.481 73.107 47.649 69.113 44.016 64.812 C40.56 60.973 36.835 57.395 33.165 53.762 C29.571 50.192 26.158 46.554 22.887 42.684 C19.901 39.343 16.69 36.226 13.484 33.099 C9.739 29.419 6.499 25.652 3.047 21.625 C2.717 48.025 2.387 74.425 2.047 101.625 C-0.263 101.625 -2.573 101.625 -4.953 101.625 C-6.458 100.12 -6.079 98.855 -6.08 96.753 C-6.082 96.337 -6.082 96.337 -6.089 94.229 C-6.087 93.308 -6.085 92.388 -6.083 91.439 C-6.084 90.475 -6.086 89.511 -6.088 88.518 C-6.092 85.314 -6.089 82.11 -6.086 78.906 C-6.087 76.69 -6.088 74.475 -6.089 72.259 C-6.09 67.608 -6.088 62.958 -6.083 58.307 C-6.078 52.924 -6.08 47.541 -6.085 42.157 C-6.09 36.987 -6.09 31.817 -6.087 26.647 C-6.086 24.443 -6.087 22.239 -6.089 20.035 C-6.092 16.96 -6.088 13.885 -6.083 10.811 C-6.085 9.89 -6.087 8.969 -6.089 8.021 C-6.086 7.188 -6.083 6.355 -6.08 5.497 C-6.08 4.769 -6.079 4.041 -6.079 3.291 C-5.811 -0.262 -3.028 0.229 0 0 Z " transform="translate(808.953125,812.375)" fill="#000000"/>
<path d="M0 0 C5.61 0 11.22 0 17 0 C17 33.33 17 66.66 17 101 C11.39 101 5.78 101 0 101 C-1.127 98.746 -1.126 97.545 -1.127 95.046 C-1.13 94.22 -1.133 93.394 -1.136 92.543 C-1.134 91.635 -1.131 90.728 -1.129 89.793 C-1.131 88.838 -1.133 87.884 -1.135 86.9 C-1.139 83.734 -1.136 80.568 -1.133 77.402 C-1.133 75.21 -1.134 73.018 -1.136 70.827 C-1.137 66.229 -1.135 61.631 -1.13 57.034 C-1.125 51.713 -1.127 46.391 -1.132 41.07 C-1.137 35.957 -1.137 30.844 -1.134 25.731 C-1.133 23.552 -1.134 21.373 -1.136 19.194 C-1.139 16.155 -1.135 13.117 -1.129 10.078 C-1.131 9.168 -1.133 8.259 -1.136 7.321 C-1.133 6.498 -1.13 5.675 -1.127 4.827 C-1.127 4.108 -1.126 3.389 -1.126 2.648 C-1 1 -1 1 0 0 Z " transform="translate(977,813)" fill="#000000"/>
</g>
<g id="systems">
<path d="M0 0 C0.619 0.536 1.238 1.072 1.875 1.625 C1.875 2.285 1.875 2.945 1.875 3.625 C1.507 3.541 1.507 3.541 -0.355 3.117 C-0.843 3.015 -0.843 3.015 -3.312 2.5 C-4.275 2.291 -5.238 2.082 -6.23 1.867 C-9.471 1.596 -11.24 2.201 -14.125 3.625 C-14.02 5.5 -14.02 5.5 -13.125 7.625 C-10.961 8.494 -9.059 9.098 -6.812 9.625 C-2.264 10.713 0.896 11.817 3.875 15.625 C4.375 18.625 4.375 18.625 3.875 21.625 C1.643 24.473 0.325 25.475 -3.125 26.625 C-9.579 27.212 -14.379 26.623 -20.125 23.625 C-19.795 22.635 -19.465 21.645 -19.125 20.625 C-18.441 20.952 -17.756 21.28 -17.051 21.617 C-13.636 22.793 -10.915 22.823 -7.312 22.75 C-6.715 22.741 -6.118 22.732 -5.502 22.723 C-4.043 22.699 -2.584 22.663 -1.125 22.625 C-1.125 20.975 -1.125 19.325 -1.125 17.625 C-4.647 15.728 -7.973 14.329 -11.812 13.188 C-14.543 12.294 -16.038 11.699 -18.25 9.812 C-19.519 6.64 -19.219 4.838 -18.125 1.625 C-13.359 -2.987 -5.733 -2.523 0 0 Z " transform="translate(458.125,955.375)" fill="#000000"/>
<path d="M0 0 C2.543 0.14 4.376 0.401 6.256 2.208 C7.508 3.787 8.671 5.401 9.812 7.062 C10.219 7.63 10.626 8.198 11.045 8.783 C12.043 10.18 13.023 11.589 14 13 C15.293 11.397 16.585 9.793 17.875 8.188 C18.594 7.294 19.314 6.401 20.055 5.48 C21.463 3.685 22.784 1.926 24 0 C24.99 0.33 25.98 0.66 27 1 C26.613 1.508 26.227 2.016 25.828 2.539 C24.742 3.975 23.666 5.418 22.598 6.867 C21.683 8.088 20.746 9.293 19.746 10.445 C15.87 15.223 16.192 21.077 16 27 C14.062 27.562 14.062 27.562 12 28 C11.67 27.67 11.34 27.34 11 27 C11.012 26.252 11.023 25.505 11.035 24.734 C11.118 15.658 7.903 11.3 2.152 4.617 C0 2 0 2 0 0 Z " transform="translate(492,954)" fill="#000000"/>
<path d="M0 0 C3.125 1 3.125 1 5 2 C5 2.99 5 3.98 5 5 C4.459 4.836 3.917 4.673 3.359 4.504 C0.598 3.914 -1.928 3.904 -4.75 3.938 C-5.735 3.947 -6.72 3.956 -7.734 3.965 C-8.108 3.971 -8.108 3.971 -10 4 C-10.33 5.32 -10.66 6.64 -11 8 C-6.372 10.068 -1.768 11.776 3.082 13.254 C5 14 5 14 7 16 C7.679 22.11 7.679 22.11 5.188 25.375 C0.835 28.608 -3.788 28.517 -9 28 C-11.521 27.21 -13.634 26.208 -16 25 C-16 24.01 -16 23.02 -16 22 C-15.216 22.33 -14.433 22.66 -13.625 23 C-9.213 24.488 -4.602 24.356 0 24 C0.66 23.67 1.32 23.34 2 23 C2 21.35 2 19.7 2 18 C0.952 17.685 -0.096 17.371 -1.176 17.047 C-2.555 16.615 -3.934 16.183 -5.312 15.75 C-6.003 15.545 -6.693 15.34 -7.404 15.129 C-10.594 14.112 -12.6 13.407 -14.98 10.984 C-16 9 -16 9 -16 6.5 C-13.057 -0.857 -6.925 -0.795 0 0 Z " transform="translate(566,954)" fill="#000000"/>
<path d="M0 0 C8.91 0 17.82 0 27 0 C27 0.99 27 1.98 27 3 C23.37 3 19.74 3 16 3 C16 10.92 16 18.84 16 27 C14.68 27.562 14.68 27.562 12 28 C12 19.75 12 11.5 12 3 C8.04 3 4.08 3 0 3 C0 2.01 0 1.02 0 0 Z " transform="translate(604,954)" fill="#000000"/>
<path d="M0 0 C7.26 0 14.52 0 22 0 C22 0.99 22 1.98 22 3 C16.06 3 10.12 3 4 3 C4 5.97 4 8.94 4 12 C8.95 12 13.9 12 19 12 C19 12.99 19 13.98 19 15 C14.05 15 9.1 15 4 15 C4 18.3 4 21.6 4 25 C10.27 25 16.54 25 23 25 C23 25.99 23 26.98 23 28 C19.354 28.029 15.708 28.047 12.062 28.062 C11.542 28.067 11.542 28.067 8.908 28.088 C7.919 28.091 6.929 28.094 5.91 28.098 C5.452 28.1 5.452 28.1 3.133 28.114 C1 28 1 28 0 27 C-0.088 25 -0.107 22.998 -0.098 20.996 C-0.096 20.398 -0.095 19.8 -0.093 19.184 C-0.088 17.269 -0.075 15.353 -0.062 13.438 C-0.057 12.141 -0.053 10.845 -0.049 9.549 C-0.039 6.366 -0.019 3.183 0 0 Z " transform="translate(665,954)" fill="#000000"/>
<path d="M0 0 C2.471 0.285 3.651 0.581 5.264 2.519 C5.439 2.839 5.439 2.839 6.324 4.457 C6.519 4.807 6.519 4.807 7.502 6.58 C7.893 7.317 8.284 8.053 8.688 8.812 C9.09 9.538 9.493 10.263 9.908 11.01 C11.722 14.331 13.197 17.28 14 21 C14.66 21 15.32 21 16 21 C16.247 20.323 16.495 19.646 16.75 18.949 C18.252 15.405 20.079 12.143 22 8.812 C22.356 8.184 22.712 7.556 23.078 6.908 C23.424 6.306 23.769 5.703 24.125 5.082 C24.437 4.538 24.749 3.994 25.07 3.433 C26 2 26 2 28 0 C28.99 0 29.98 0 31 0 C31 9.24 31 18.48 31 28 C29.68 27.67 28.36 27.34 27 27 C26.835 23.865 26.835 23.865 26 8 C25.615 8.686 25.615 8.686 23.664 12.156 C22.651 13.938 21.638 15.719 20.625 17.5 C20.117 18.406 19.609 19.312 19.086 20.246 C18.596 21.103 18.106 21.961 17.602 22.844 C17.376 23.242 17.376 23.242 16.237 25.256 C15.829 25.831 15.421 26.407 15 27 C14.34 27 13.68 27 13 27 C9.7 21.06 6.4 15.12 3 9 C2.67 14.94 2.34 20.88 2 27 C1.01 27 0.02 27 -1 27 C-1.025 23.316 -1.043 19.631 -1.055 15.947 C-1.06 14.692 -1.067 13.438 -1.075 12.184 C-1.088 10.384 -1.093 8.585 -1.098 6.785 C-1.103 5.701 -1.108 4.617 -1.114 3.5 C-1 1 -1 1 0 0 Z " transform="translate(724,954)" fill="#000000"/>
<path d="M0 0 C1.641 0.824 1.641 0.824 4.016 2.324 C3.686 2.984 3.356 3.644 3.016 4.324 C2.474 4.161 1.933 3.997 1.375 3.828 C-1.387 3.238 -3.913 3.228 -6.734 3.262 C-7.719 3.271 -8.704 3.28 -9.719 3.289 C-10.093 3.295 -10.093 3.295 -11.984 3.324 C-12.314 4.644 -12.644 5.964 -12.984 7.324 C-8.629 9.23 -4.288 10.966 0.219 12.48 C2.33 13.472 3.546 14.517 5.016 16.324 C5.453 19.262 5.453 19.262 5.016 22.324 C2.784 25.172 1.466 26.174 -1.984 27.324 C-8.439 27.911 -13.238 27.322 -18.984 24.324 C-18.654 23.334 -18.324 22.344 -17.984 21.324 C-17.277 21.65 -16.569 21.976 -15.84 22.312 C-12.788 23.394 -10.52 23.56 -7.297 23.512 C-6.344 23.505 -5.392 23.499 -4.41 23.492 C-1.984 23.324 -1.984 23.324 0.016 22.324 C0.641 19.762 0.641 19.762 1.016 17.324 C0.219 17.154 -0.578 16.984 -1.398 16.809 C-12.754 14.211 -12.754 14.211 -16.984 10.324 C-18.132 7.454 -18.219 6.072 -17.297 3.137 C-13.531 -2.063 -5.615 -1.912 0 0 Z " transform="translate(808.984375,954.67578125)" fill="#000000"/>
</g>
</svg>